# xmcd
#
# Track frame offsets: 
#        150
#        13118
#        37708
#        58119
#        87736
#        107784
#        129458
#        166841
#        187677
#        222672
#        236384
#        255714
#        282834
#
# Disc length: 4030 seconds
#
# Revision: 2
# Processed by: cddbd v1.5.2PL0 Copyright (c) Steve Scherf et al.
# Submitted via: ExactAudioCopyFreeDBPlugin 1.0
#
DISCID=af0fbc0d
DTITLE=Mavis Staples - Live:  Hope at the Hideout
DYEAR=2008
DGENRE=Soul
TTITLE0=For What It's Worth
TTITLE1=Eyes on the Prize
TTITLE2=Down in Mississippi
TTITLE3=Wade in the Water
TTITLE4=Waiting for My Child
TTITLE5=This Little Light
TTITLE6=Why Am I Treated So Bad
TTITLE7=Freedom Highway
TTITLE8=We Shall Not Be Moved
TTITLE9=Circle Intro (encore)
TTITLE10=Will the Circle Be Unbroken (encore)
TTITLE11=On My Way (encore)
TTITLE12=I'll Take You There (encore)
EXTD=
EXTT0=
EXTT1=
EXTT2=
EXTT3=
EXTT4=
EXTT5=
EXTT6=
EXTT7=
EXTT8=
EXTT9=
EXTT10=
EXTT11=
EXTT12=
PLAYORDER=
